{
  "accessors": [
    {
      "bufferView": 2,
      "componentType": 5126,
      "count": 2039,
      "max": [
        23.56135368347168,
        11.811014175415039,
        23.37326431274414
      ],
      "min": [
        -23.61642837524414,
        0.07033105194568634,
        -23.541000366210938
      ],
      "type": "VEC3"
    },
    {
      "bufferView": 2,
      "byteOffset": 24468,
      "componentType": 5126,
      "count": 2039,
      "max": [
        0.9863044023513794,
        1.0,
        0.9862926602363586
      ],
      "min": [
        -0.9871261715888977,
        -1.0,
        -0.9955012202262878
      ],
      "type": "VEC3"
    },
    {
      "bufferView": 3,
      "componentType": 5126,
      "count": 2039,
      "max": [
        0.9568408131599426,
        0.989524781703949,
        0.9870584607124329,
        1.0
      ],
      "min": [
        -0.8944323062896729,
        -0.9863798022270203,
        -0.9985852837562561,
        -1.0
      ],
      "type": "VEC4"
    },
    {
      "bufferView": 1,
      "componentType": 5126,
      "count": 2039,
      "max": [
        0.9542776942253113,
        0.9487619996070862
      ],
      "min": [
        0.05295092612504959,
        0.04984576627612114
      ],
      "type": "VEC2"
    },
    {
      "bufferView": 1,
      "byteOffset": 16312,
      "componentType": 5126,
      "count": 2039,
      "max": [
        0.9542776942253113,
        0.9487619996070862
      ],
      "min": [
        0.05295092612504959,
        0.04984576627612114
      ],
      "type": "VEC2"
    },
    {
      "bufferView": 0,
      "componentType": 5125,
      "count": 10686,
      "type": "SCALAR"
    }
  ],
  "asset": {
    "extras": {
      "author": "Juan David (https://sketchfab.com/JuanDavid.497)",
      "license": "CC-BY-4.0 (http://creativecommons.org/licenses/by/4.0/)",
      "source": "https://sketchfab.com/3d-models/sombrero-vueltiao-colombia-626560a80beb4edc992b001f8b54e714",
      "title": "Sombrero Vueltiao Colombia"
    },
    "generator": "Sketchfab-16.9.0",
    "version": "2.0"
  },
  "bufferViews": [
    {
      "buffer": 0,
      "byteLength": 42744,
      "name": "floatBufferViews",
      "target": 34963
    },
    {
      "buffer": 0,
      "byteLength": 32624,
      "byteOffset": 42744,
      "byteStride": 8,
      "name": "floatBufferViews",
      "target": 34962
    },
    {
      "buffer": 0,
      "byteLength": 48936,
      "byteOffset": 75368,
      "byteStride": 12,
      "name": "floatBufferViews",
      "target": 34962
    },
    {
      "buffer": 0,
      "byteLength": 32624,
      "byteOffset": 124304,
      "byteStride": 16,
      "name": "floatBufferViews",
      "target": 34962
    }
  ],
  "buffers": [
    {
      "byteLength": 156928,
      "uri": "scene.bin"
    }
  ],
  "extensionsUsed": [
    "KHR_materials_specular"
  ],
  "images": [
    {
      "uri": "textures/Material_25_baseColor.jpeg"
    },
    {
      "uri": "textures/Material_25_normal.png"
    }
  ],
  "materials": [
    {
      "doubleSided": true,
      "extensions": {
        "KHR_materials_specular": {
          "specularColorFactor": [
            1.0,
            1.0,
            1.0
          ],
          "specularFactor": 0.07771452255854494
        }
      },
      "name": "Material_25",
      "normalTexture": {
        "index": 1
      },
      "pbrMetallicRoughness": {
        "baseColorTexture": {
          "index": 0
        },
        "metallicFactor": 0.0
      }
    }
  ],
  "meshes": [
    {
      "name": "Retopo_Sombrero_Vueltiao[1]_Material #25_0",
      "primitives": [
        {
          "attributes": {
            "NORMAL": 1,
            "POSITION": 0,
            "TANGENT": 2,
            "TEXCOORD_0": 3,
            "TEXCOORD_1": 4
          },
          "indices": 5,
          "material": 0,
          "mode": 4
        }
      ]
    }
  ],
  "nodes": [
    {
      "children": [
        1
      ],
      "matrix": [
        0.010361751541495323,
        0.0,
        0.0,
        0.0,
        0.0,
        2.300771027362663e-18,
        -0.010361751541495323,
        0.0,
        0.0,
        0.010361751541495323,
        2.300771027362663e-18,
        0.0,
        0.0,
        0.0,
        0.0,
        1.0
      ],
      "name": "Sketchfab_model"
    },
    {
      "children": [
        2
      ],
      "matrix": [
        0.009999999776482582,
        0.0,
        0.0,
        0.0,
        0.0,
        0.0,
        0.009999999776482582,
        0.0,
        0.0,
        -0.009999999776482582,
        0.0,
        0.0,
        0.0,
        0.0,
        0.0,
        1.0
      ],
      "name": "b5581ef62f4444328988b3eba49b76da.fbx"
    },
    {
      "children": [
        3
      ],
      "name": "RootNode"
    },
    {
      "children": [
        4
      ],
      "matrix": [
        100.0,
        0.0,
        0.0,
        0.0,
        0.0,
        99.99999999999972,
        -7.5497901264043296e-06,
        0.0,
        0.0,
        7.5497901264043296e-06,
        99.99999999999972,
        0.0,
        0.0,
        0.0,
        0.0,
        1.0
      ],
      "name": "Retopo_Sombrero_Vueltiao[1]"
    },
    {
      "mesh": 0,
      "name": "Retopo_Sombrero_Vueltiao[1]_Material #25_0"
    }
  ],
  "samplers": [
    {
      "magFilter": 9729,
      "minFilter": 9987,
      "wrapS": 10497,
      "wrapT": 10497
    }
  ],
  "scene": 0,
  "scenes": [
    {
      "name": "Sketchfab_Scene",
      "nodes": [
        0
      ]
    }
  ],
  "textures": [
    {
      "sampler": 0,
      "source": 0
    },
    {
      "sampler": 0,
      "source": 1
    }
  ]
}
